<?xml version="1.0" standalone="no"?><!DOCTYPE svg PUBLIC "-//W3C//DTD SVG 1.1//EN" "http://www.w3.org/Graphics/SVG/1.1/DTD/svg11.dtd"><svg t="1662263013580" class="icon" viewBox="0 0 1323 1024" version="1.1" xmlns="http://www.w3.org/2000/svg" p-id="5855" width="330.75" height="256" xmlns:xlink="http://www.w3.org/1999/xlink"><path d="M19.591391 141.337889h1284.810386v863.07072H19.591391z" fill="#01DEE9" p-id="5856"></path><path d="M1323.993167 1024H0V122.446191h1323.993167zM39.182781 984.817219h1245.627605V160.929279H39.182781z" fill="#484F59" p-id="5857"></path><path d="M19.591391 19.591391h1284.810386V143.436966H19.591391z" fill="#CDD5D7" p-id="5858"></path><path d="M1323.993167 163.028357H0V0h1323.993167zM39.182781 123.845576h1245.627605V39.182781H39.182781z" fill="#484F59" p-id="5859"></path><path d="M65.246327 60.873249h40.407243v39.182781H65.246327zM135.040656 60.873249h40.23232v39.182781h-40.23232zM204.834985 60.873249h40.407243v39.182781h-40.407243z" fill="#484F59" p-id="5860"></path><path d="M662.783738 1004.408609V393.402118a107.927571 107.927571 0 0 0-107.927571-107.927571H22.040314v718.934062z" fill="#FFFFFF" p-id="5861"></path><path d="M682.200205 1024H2.448924V265.883157h552.407243A127.693885 127.693885 0 0 1 682.200205 393.402118zM41.631705 984.817219h601.560642V393.402118a88.511104 88.511104 0 0 0-88.33618-87.461565H41.631705z" fill="#484F59" p-id="5862"></path><path d="M173.173898 388.504271h257.836693v39.182781H173.173898zM173.173898 496.081995h389.728733v39.182781H173.173898zM173.173898 570.949095h389.728733v39.182781H173.173898zM173.173898 646.16604h389.728733v39.182781H173.173898zM173.173898 721.208063h389.728733v39.182781H173.173898zM173.173898 796.250085h389.728733v39.182781H173.173898z" fill="#484F59" p-id="5863"></path><path d="M662.783738 1004.408609V393.402118a107.927571 107.927571 0 0 1 107.927571-107.927571h532.815852v718.934062z" fill="#FFFFFF" p-id="5864"></path><path d="M1323.118551 1024H643.192347v-629.723266a127.693885 127.693885 0 0 1 127.518962-127.518962h552.407242zM682.200205 984.817219h601.735565V305.065938H770.711309a88.511104 88.511104 0 0 0-88.336181 87.461565zM71.018791 285.299624H110.201572v712.986676H71.018791z" fill="#484F59" p-id="5865"></path><path d="M1214.491288 285.299624h39.182781v712.986676h-39.182781zM760.040998 721.208063h389.728732v39.182781H760.040998zM760.040998 796.250085h389.728732v39.182781H760.040998z" fill="#484F59" p-id="5866"></path><path d="M779.632388 407.046122h354.39426v260.810386H779.632388z" fill="#FF8F8F" p-id="5867"></path><path d="M1154.492655 687.447899H760.040998V387.454732H1154.492655z m-355.268876-39.007858h314.861633V426.637513h-314.861633z" fill="#484F59" p-id="5868"></path><path d="M1014.729074 538.238469l-50.377861 25.7137-50.202938 25.888624v-103.37957l50.202938 25.888623 50.377861 25.888623z" fill="#FFFFFF" p-id="5869"></path><path d="M894.556884 621.851725V454.800137l163.20328 83.613256z m39.007858-103.379569v39.357704l38.308165-19.766314z" fill="#484F59" p-id="5870"></path></svg>